<svg width="5120" height="5120" xmlns="http://www.w3.org/2000/svg" preserveAspectRatio="xMidYMid meet">

 <g>
  <title>background</title>
  <rect fill="none" id="canvas_background" height="402" width="582" y="-1" x="-1"/>
 </g>
 <g>
  <title>Layer 1</title>
  <g fill="#ffffff" id="layer103">
   <path id="svg_3" d="m1195,3949c-89,-11 -201,-45 -208,-62c-10,-27 24,-153 56,-206c58,-96 147,-145 267,-145c124,0 228,62 279,167c24,49 51,164 43,185c-6,17 -122,50 -222,62c-95,11 -116,11 -215,-1z"/>
   <path id="svg_4" d="m2173,3873l-273,-3l0,-314l0,-313l539,-6c296,-4 778,-4 1070,0l531,6l0,312l0,312l-397,6c-372,7 -819,6 -1470,0zm1777,-313l0,-230l-405,0l-405,0l0,230l0,230l405,0l405,0l0,-230z"/>
   <path id="svg_5" d="m1273,3474c-45,-22 -87,-109 -88,-179c0,-90 38,-130 125,-130c87,0 125,40 125,130c-1,72 -44,157 -89,179c-41,19 -34,19 -73,0z"/>
   <path id="svg_6" d="m1220,2954c-94,-11 -220,-46 -230,-64c-15,-29 24,-166 65,-225c66,-96 197,-149 312,-126c79,16 156,65 198,126c47,69 82,200 62,232c-19,30 -300,70 -407,57z"/>
   <path id="svg_7" d="m2323,2883l-423,-3l0,-319l0,-318l538,-5c295,-3 777,-3 1070,0l532,5l0,318l0,319l-297,0c-164,0 -455,2 -648,3c-192,2 -540,2 -772,0zm807,-323l0,-220l-440,0l-440,0l0,220l0,220l440,0l440,0l0,-220z"/>
   <path id="svg_8" d="m1273,2474c-67,-33 -111,-187 -74,-257c7,-14 28,-31 45,-39c66,-27 152,-8 177,39c38,71 -7,225 -75,257c-41,19 -34,19 -73,0z"/>
   <path id="svg_9" d="m1182,1950c-86,-12 -175,-38 -188,-56c-9,-11 -8,-31 3,-82c33,-158 115,-243 264,-273c109,-22 243,35 305,129c49,74 82,198 60,227c-30,40 -305,75 -444,55z"/>
   <path id="svg_10" d="m2258,1883l-358,-3l0,-314l0,-314l540,-7c297,-4 778,-4 1070,0l530,7l0,313l0,312l-527,6c-289,4 -610,6 -712,5c-102,-2 -347,-4 -543,-5zm12,-328l0,-225l-155,0l-155,0l0,225l0,225l155,0l155,0l0,-225z"/>
   <path id="svg_11" d="m1267,1472c-45,-27 -80,-105 -80,-177c-1,-80 12,-101 76,-120c49,-16 55,-16 102,2c43,16 52,24 63,58c25,73 -15,199 -73,235c-39,24 -52,25 -88,2z"/>
  </g>
 </g>
</svg>