<svg width="1000" height="1000" xmlns="http://www.w3.org/2000/svg">
 <metadata>Svg Vector Icons : http://www.onlinewebfonts.com/icon</metadata>

 <g>
  <title>background</title>
  <rect fill="none" id="canvas_background" height="402" width="582" y="-1" x="-1"/>
 </g>
 <g>
  <title>Layer 1</title>
  <rect id="svg_4" height="1148.649217" width="1278.379011" y="-62.567827" x="-147.297618" stroke-opacity="null" stroke-width="1.5" stroke="#000" fill="#f99000"/>
  <g fill="white" id="svg_1">
   <path stroke-width="0" stroke="null" id="svg_2" d="m749.468213,398.889153c-0.433952,-0.488196 -0.81366,-1.030636 -1.301856,-1.518833l-2.061273,-1.3561c-2.386737,-1.898541 -4.881962,-3.525861 -7.594163,-4.99045l-202.818386,-123.242411c-11.60822,-8.570555 -23.813124,-13.669493 -35.63832,-14.700129c0,0 -0.054244,0 -0.108488,0c-0.054244,0 -0.108488,0 -0.108488,0c-11.825196,1.030636 -24.0301,6.129574 -35.63832,14.700129l-202.709898,123.242411c-2.712201,1.410344 -5.207426,3.091909 -7.594163,4.99045l-2.061273,1.3561c-0.488196,0.488196 -0.81366,1.030636 -1.301856,1.518833c-10.035143,9.438459 -16.32745,22.94522 -16.32745,38.350521l0,257.279381c0,29.400258 22.619756,52.399722 51.42333,52.399722l428.744725,0c28.803574,0 51.42333,-22.999464 51.42333,-52.399722l0,-257.279381c0,-15.405301 -6.292306,-28.912062 -16.32745,-38.350521zm-12.259148,295.629903c0,3.037665 -0.596684,5.858354 -1.518833,8.462067l-182.042927,-147.760707l183.56176,-114.237904l0,253.536544zm-232.598353,-179.059506c-1.464589,-1.193368 -3.146153,-1.681565 -4.881962,-1.898541c-0.488196,-0.054244 -0.922148,-0.108488 -1.410344,-0.108488c-0.488196,0 -0.922148,0.054244 -1.410344,0.108488c-1.735809,0.216976 -3.417373,0.705172 -4.881962,1.898541l-32.003971,25.928641l-97.096794,-60.699057l0,-37.916569l273.932295,0l0,37.916569l-98.344406,61.566961c-0.162732,0.108488 -0.216976,0.27122 -0.379708,0.379708l-33.522804,-27.176253zm-232.761085,-97.801966l212.473822,-129.588961c4.936206,-3.688593 10.360608,-5.966842 15.676521,-6.563526c5.315914,0.596684 10.79456,2.874933 15.676521,6.563526l212.473822,129.588961c1.247612,1.247612 2.224005,2.657957 3.146153,4.068301l-75.236454,47.029564l0,-25.982885c0,-10.52334 -8.570555,-19.039651 -19.039651,-19.039651l-273.932295,0c-10.52334,0 -19.039651,8.570555 -19.039651,19.039651l0,25.982885l-75.344942,-47.029564c0.922148,-1.410344 1.898541,-2.820689 3.146153,-4.068301zm-9.058751,23.324928l181.717463,113.098779l-180.849559,146.784315c-0.54244,-2.007029 -0.867904,-4.122545 -0.867904,-6.34655l0,-253.536544zm22.836732,277.349668c-3.688593,0 -7.105966,-0.922148 -10.143632,-2.495225l222.888673,-180.903803l224.082042,181.825951c-2.495225,0.976392 -5.207426,1.573077 -8.028115,1.573077l-428.798969,0l0,0z"/>
  </g>
 </g>
</svg>