<!DOCTYPE svg PUBLIC "-//W3C//DTD SVG 20010904//EN" "http://www.w3.org/TR/2001/REC-SVG-20010904/DTD/svg10.dtd">
<svg version="1.0" xmlns="http://www.w3.org/2000/svg" width="512px" height="512px" viewBox="0 0 5120 5120" preserveAspectRatio="xMidYMid meet">
<g id="layer101" fill="#ff9900" stroke="none">
 <path d="M2185 5100 c-366 -55 -731 -196 -1035 -398 -389 -258 -693 -604 -895 -1017 -119 -244 -196 -493 -236 -759 -27 -184 -27 -548 0 -732 40 -266 117 -515 236 -759 123 -250 268 -456 464 -659 400 -411 911 -674 1475 -757 184 -27 548 -27 732 0 266 40 514 117 759 236 511 249 929 668 1180 1180 119 244 196 493 236 759 27 184 27 548 0 732 -40 266 -117 515 -236 759 -123 250 -268 456 -464 659 -400 411 -911 674 -1475 757 -179 26 -566 26 -741 -1z"/>
 </g>
<g id="layer102" fill="#ffc103" stroke="none">
 <path d="M2185 5100 c-366 -55 -731 -196 -1035 -398 -389 -258 -693 -604 -895 -1017 -119 -244 -196 -493 -236 -759 -27 -184 -27 -548 0 -732 40 -266 117 -515 236 -759 123 -250 268 -456 464 -659 400 -411 911 -674 1475 -757 184 -27 548 -27 732 0 266 40 514 117 759 236 511 249 929 668 1180 1180 119 244 196 493 236 759 27 184 27 548 0 732 -40 266 -117 515 -236 759 -123 250 -268 456 -464 659 -400 411 -911 674 -1475 757 -179 26 -566 26 -741 -1z m1765 -1540 l0 -230 -405 0 -405 0 0 230 0 230 405 0 405 0 0 -230z m-820 -1000 l0 -220 -440 0 -440 0 0 220 0 220 440 0 440 0 0 -220z m-860 -1005 l0 -225 -155 0 -155 0 0 225 0 225 155 0 155 0 0 -225z"/>
 </g>
<g id="layer103" fill="#ffffff" stroke="none">
 <path d="M1195 3949 c-89 -11 -201 -45 -208 -62 -10 -27 24 -153 56 -206 58 -96 147 -145 267 -145 124 0 228 62 279 167 24 49 51 164 43 185 -6 17 -122 50 -222 62 -95 11 -116 11 -215 -1z"/>
 <path d="M2173 3873 l-273 -3 0 -314 0 -313 539 -6 c296 -4 778 -4 1070 0 l531 6 0 312 0 312 -397 6 c-372 7 -819 6 -1470 0z m1777 -313 l0 -230 -405 0 -405 0 0 230 0 230 405 0 405 0 0 -230z"/>
 <path d="M1273 3474 c-45 -22 -87 -109 -88 -179 0 -90 38 -130 125 -130 87 0 125 40 125 130 -1 72 -44 157 -89 179 -41 19 -34 19 -73 0z"/>
 <path d="M1220 2954 c-94 -11 -220 -46 -230 -64 -15 -29 24 -166 65 -225 66 -96 197 -149 312 -126 79 16 156 65 198 126 47 69 82 200 62 232 -19 30 -300 70 -407 57z"/>
 <path d="M2323 2883 l-423 -3 0 -319 0 -318 538 -5 c295 -3 777 -3 1070 0 l532 5 0 318 0 319 -297 0 c-164 0 -455 2 -648 3 -192 2 -540 2 -772 0z m807 -323 l0 -220 -440 0 -440 0 0 220 0 220 440 0 440 0 0 -220z"/>
 <path d="M1273 2474 c-67 -33 -111 -187 -74 -257 7 -14 28 -31 45 -39 66 -27 152 -8 177 39 38 71 -7 225 -75 257 -41 19 -34 19 -73 0z"/>
 <path d="M1182 1950 c-86 -12 -175 -38 -188 -56 -9 -11 -8 -31 3 -82 33 -158 115 -243 264 -273 109 -22 243 35 305 129 49 74 82 198 60 227 -30 40 -305 75 -444 55z"/>
 <path d="M2258 1883 l-358 -3 0 -314 0 -314 540 -7 c297 -4 778 -4 1070 0 l530 7 0 313 0 312 -527 6 c-289 4 -610 6 -712 5 -102 -2 -347 -4 -543 -5z m12 -328 l0 -225 -155 0 -155 0 0 225 0 225 155 0 155 0 0 -225z"/>
 <path d="M1267 1472 c-45 -27 -80 -105 -80 -177 -1 -80 12 -101 76 -120 49 -16 55 -16 102 2 43 16 52 24 63 58 25 73 -15 199 -73 235 -39 24 -52 25 -88 2z"/>
 </g>

</svg>